<svg width="468" height="367" viewBox="0 0 468 367" fill="none" xmlns="http://www.w3.org/2000/svg">
<path d="M260.433 10.4334C266.684 4.18434 275.161 0.673828 284 0.673828C292.839 0.673828 301.316 4.18434 307.566 10.4334L457.566 160.433C463.816 166.684 467.326 175.161 467.326 184C467.326 192.839 463.816 201.316 457.566 207.567L307.566 357.567C301.28 363.639 292.86 366.998 284.12 366.922C275.38 366.847 267.019 363.341 260.839 357.161C254.659 350.98 251.153 342.62 251.077 333.88C251.001 325.14 254.361 316.72 260.433 310.433L350.666 217.333H33.9998C25.1593 217.333 16.6808 213.821 10.4296 207.57C4.1784 201.319 0.666504 192.841 0.666504 184C0.666504 175.159 4.1784 166.681 10.4296 160.43C16.6808 154.179 25.1593 150.667 33.9998 150.667H350.666L260.433 57.5667C254.184 51.3158 250.674 42.8388 250.674 34C250.674 25.1612 254.184 16.6843 260.433 10.4334Z" fill="#111111"/>
</svg>
