<svg width="1544" height="1201" viewBox="0 0 1544 1201" fill="none" xmlns="http://www.w3.org/2000/svg">
<g filter="url(#filter0_f_2001_18)">
<circle cx="772" cy="601" r="187" fill="white" fill-opacity="0.3"/>
</g>
<line x1="172.5" y1="89.9648" x2="172.5" y2="1112.04" stroke="white" stroke-opacity="0.1"/>
<line x1="292.5" y1="89.9648" x2="292.5" y2="1112.04" stroke="white" stroke-opacity="0.1"/>
<line x1="412.5" y1="89.9648" x2="412.5" y2="1112.04" stroke="white" stroke-opacity="0.1"/>
<line x1="532.5" y1="89.9648" x2="532.5" y2="1112.04" stroke="white" stroke-opacity="0.1"/>
<line x1="652.5" y1="89.9648" x2="652.5" y2="1112.04" stroke="white" stroke-opacity="0.1"/>
<line x1="772.5" y1="89.9648" x2="772.5" y2="1112.04" stroke="white" stroke-opacity="0.1"/>
<line x1="892.5" y1="89.9648" x2="892.5" y2="1112.04" stroke="white" stroke-opacity="0.1"/>
<line x1="1012.5" y1="89.9648" x2="1012.5" y2="1112.04" stroke="white" stroke-opacity="0.1"/>
<line x1="1132.5" y1="89.9648" x2="1132.5" y2="1112.04" stroke="white" stroke-opacity="0.1"/>
<line x1="1252.5" y1="89.9648" x2="1252.5" y2="1112.04" stroke="white" stroke-opacity="0.1"/>
<line x1="1372.5" y1="89.9648" x2="1372.5" y2="1112.04" stroke="white" stroke-opacity="0.1"/>
<line y1="1200.5" x2="1544" y2="1200.5" stroke="white" stroke-opacity="0.1"/>
<line y1="1080.5" x2="1544" y2="1080.5" stroke="white" stroke-opacity="0.1"/>
<line y1="960.5" x2="1544" y2="960.5" stroke="white" stroke-opacity="0.1"/>
<line y1="840.5" x2="1544" y2="840.5" stroke="white" stroke-opacity="0.1"/>
<line y1="720.5" x2="1544" y2="720.5" stroke="white" stroke-opacity="0.1"/>
<line y1="600.5" x2="1544" y2="600.5" stroke="white" stroke-opacity="0.1"/>
<line y1="480.5" x2="1544" y2="480.5" stroke="white" stroke-opacity="0.1"/>
<line y1="360.5" x2="1544" y2="360.5" stroke="white" stroke-opacity="0.1"/>
<line y1="240.5" x2="1544" y2="240.5" stroke="white" stroke-opacity="0.1"/>
<line y1="120.5" x2="1544" y2="120.5" stroke="white" stroke-opacity="0.1"/>
<line y1="0.5" x2="1544" y2="0.5" stroke="white" stroke-opacity="0.1"/>
<defs>
<filter id="filter0_f_2001_18" x="285" y="114" width="974" height="974" filterUnits="userSpaceOnUse" color-interpolation-filters="sRGB">
<feFlood flood-opacity="0" result="BackgroundImageFix"/>
<feBlend mode="normal" in="SourceGraphic" in2="BackgroundImageFix" result="shape"/>
<feGaussianBlur stdDeviation="150" result="effect1_foregroundBlur_2001_18"/>
</filter>
</defs>
</svg>
